# File created by Blade
# Date/Time:  Thu Jan 22 15:33:09 2015
#---------------------------------------------------------
:version 1.10
:name HOM
:units
  mass 1.0
  length 1.000000
  angle deg
:documentation
     Acclaim Skeleton File
:root
   axis xyz
   order TX TY TZ RX RY RZ
   position 0.000000 0.000000 0.000000
   orientation 0 0 0
:bonedata
   begin
      id 1
      name RightUpLeg_dum
      direction -1.000000 0.000000 0.000000
      length 3.693983
      axis 0.0 0.0 0.0 xyz
   end
   begin
      id 2
      name LeftUpLeg_dum
      direction 1.000000 0.000000 0.000000
      length 3.693983
      axis 0.0 0.0 0.0 xyz
   end
   begin
      id 3
      name Spine_dum
      direction 0.000000 1.000000 0.000000
      length 2.392956
      axis 0.0 0.0 0.0 xyz
   end
   begin
      id 4
      name RightUpLeg
      direction 0.000000 -1.000000 0.000000
      length 15.795667
      axis 0.0 0.0 0.0 xyz
      dof rx ry rz
   end
   begin
      id 5
      name RightLeg
      direction 0.000000 -1.000000 0.000000
      length 14.766989
      axis 0.0 0.0 0.0 xyz
      dof rx ry rz
   end
   begin
      id 6
      name RightFoot
      direction 0.000000 -0.258819 0.965926
      length 4.962790
      axis 15.0 0.0 0.0 xyz
      dof rx ry rz
   end
   begin
      id 7
      name RightToeBase
      direction 0.000000 0.000000 1.000000
      length 2.952750
      axis 0.0 0.0 0.0 xyz
      dof rx ry rz
   end
   begin
      id 8
      name LeftUpLeg
      direction 0.000000 -1.000000 0.000000
      length 15.795667
      axis 0.0 0.0 0.0 xyz
      dof rx ry rz
   end
   begin
      id 9
      name LeftLeg
      direction 0.000000 -1.000000 0.000000
      length 14.766989
      axis 0.0 0.0 0.0 xyz
      dof rx ry rz
   end
   begin
      id 10
      name LeftFoot
      direction 0.000000 -0.258819 0.965926
      length 4.962790
      axis 15.0 0.0 0.0 xyz
      dof rx ry rz
   end
   begin
      id 11
      name LeftToeBase
      direction 0.000000 0.000000 1.000000
      length 2.952750
      axis 0.0 0.0 0.0 xyz
      dof rx ry rz
   end
   begin
      id 12
      name Spine
      direction 0.000000 1.000000 0.000000
      length 0.000000
      axis 0.0 0.0 0.0 xyz
      dof rx ry rz
   end
   begin
      id 13
      name Spine_dum1
      direction 0.000000 1.000000 0.000000
      length 13.207411
      axis 0.0 0.0 0.0 xyz
   end
   begin
      id 14
      name Spine_dum2
      direction 0.000000 1.000000 0.000000
      length 13.207411
      axis 0.0 0.0 0.0 xyz
   end
   begin
      id 15
      name Spine_dum3
      direction 0.000000 1.000000 0.000000
      length 19.250100
      axis 0.0 0.0 0.0 xyz
   end
   begin
      id 16
      name RightShoulder
      direction -1.000000 0.000000 0.000000
      length 8.140465
      axis 0.0 0.0 90.0 xyz
      dof rx ry rz
   end
   begin
      id 17
      name RightArm
      direction -1.000000 0.000000 0.000000
      length 10.649840
      axis 0.0 0.0 90.0 xyz
      dof rx ry rz
   end
   begin
      id 18
      name RightForeArm
      direction -1.000000 0.000000 0.000000
      length 8.304624
      axis 0.0 0.0 90.0 xyz
      dof ry rz rx
   end
   begin
      id 19
      name RightHand
      direction -1.000000 0.000000 0.000000
      length 0.000000
      axis 0.0 0.0 90.0 xyz
      dof rx ry rz
   end
   begin
      id 20
      name RightHand_dum1
      direction -1.000000 0.000000 0.000000
      length 3.937000
      axis 0.0 0.0 90.0 xyz
   end
   begin
      id 21
      name RightHand_dum2
      direction 0.000000 0.000000 0.000000
      length 0.000000
      axis 0.0 0.0 90.0 xyz
   end
   begin
      id 22
      name RightHandThumb1
      direction 0.000000 0.000000 1.000000
      length 3.937000
      axis 0.0 0.0 90.0 xyz
      dof rx rz ry
   end
   begin
      id 23
      name LeftShoulder
      direction 1.000000 0.000000 0.000000
      length 8.140465
      axis 0.0 0.0 -90.0 xyz
      dof rx ry rz
   end
   begin
      id 24
      name LeftArm
      direction 1.000000 0.000000 0.000000
      length 10.649840
      axis 0.0 0.0 -90.0 xyz
      dof rx ry rz
   end
   begin
      id 25
      name LeftForeArm
      direction 1.000000 0.000000 0.000000
      length 8.304624
      axis 0.0 0.0 -90.0 xyz
      dof ry rz rx
   end
   begin
      id 26
      name LeftHand
      direction 1.000000 0.000000 0.000000
      length 0.000000
      axis 0.0 0.0 -90.0 xyz
      dof rx ry rz
   end
   begin
      id 27
      name LeftHand_dum1
      direction 1.000000 0.000000 0.000000
      length 3.937000
      axis 0.0 0.0 -90.0 xyz
   end
   begin
      id 28
      name LeftHand_dum2
      direction 0.000000 0.000000 0.000000
      length 0.000000
      axis 0.0 0.0 -90.0 xyz
   end
   begin
      id 29
      name LeftHandThumb1
      direction 0.000000 0.000000 1.000000
      length 3.937000
      axis 0.0 0.0 -90.0 xyz
      dof rx rz ry
   end
   begin
      id 30
      name Head
      direction 0.000000 1.000000 0.000000
      length 4.527550
      axis 0.0 0.0 0.0 xyz
      dof rx ry rz
   end
:hierarchy
   begin
      root RightUpLeg_dum LeftUpLeg_dum Spine_dum
      RightUpLeg_dum RightUpLeg
      LeftUpLeg_dum LeftUpLeg
      Spine_dum Spine
      RightUpLeg RightLeg
      RightLeg RightFoot
      RightFoot RightToeBase
      LeftUpLeg LeftLeg
      LeftLeg LeftFoot
      LeftFoot LeftToeBase
      Spine Spine_dum1 Spine_dum2 Spine_dum3
      Spine_dum1 RightShoulder
      Spine_dum2 LeftShoulder
      Spine_dum3 Head
      RightShoulder RightArm
      RightArm RightForeArm
      RightForeArm RightHand
      RightHand RightHand_dum1 RightHand_dum2
      RightHand_dum2 RightHandThumb1
      LeftShoulder LeftArm
      LeftArm LeftForeArm
      LeftForeArm LeftHand
      LeftHand LeftHand_dum1 LeftHand_dum2
      LeftHand_dum2 LeftHandThumb1
   end

# File created by Blade
# Date/Time:  Thu Jan 22 15:33:01 2015
# Frame Rate: 120.000 fps
#------------------------------------------------------
:FULLY-SPECIFIED
:DEGREES
1
root 1.158770 32.466854 -4.643317 38.403630 5.722073 1.392849
RightUpLeg -29.263038 -14.761980 6.661872
RightLeg -3.274208 -0.000000 0.000000
RightFoot -12.532577 4.149960 18.717685
RightToeBase 20.454044 -0.000000 -0.000000
LeftUpLeg -30.993781 5.812181 -2.516345
LeftLeg 0.579196 -0.000000 -0.000000
LeftFoot -11.222038 -11.777893 -1.333669
LeftToeBase 4.530125 -0.000000 -0.000000
Spine -44.911599 -2.807221 -0.425510
RightShoulder -19.389134 15.221614 -42.904930
RightArm 3.563030 -20.608621 41.925211
RightForeArm 5.508804 -0.000000 -4.176492
RightHand 7.524095 0.000000 2.933711
RightHandThumb1 -24.326973 -0.000000 -32.862282
LeftShoulder -12.212335 4.259916 37.386170
LeftArm 21.610234 -8.455794 -40.083326
LeftForeArm 20.812601 -0.000000 -0.730277
LeftHand -28.817315 -0.000000 6.150340
LeftHandThumb1 -26.253704 0.000000 33.147579
Head 11.472884 -2.018035 7.810741
2
root 1.159542 32.466714 -4.639183 38.399747 5.737436 1.390714
RightUpLeg -29.233690 -14.763421 6.656423
RightLeg -3.298822 -0.000000 0.000000
RightFoot -12.525814 4.160989 18.814911
RightToeBase 20.509783 -0.000000 -0.000000
LeftUpLeg -30.959441 5.784724 -2.491547
LeftLeg 0.534149 -0.000000 -0.000000
LeftFoot -11.243019 -11.747454 -1.303292
LeftToeBase 4.643591 -0.000000 -0.000000
Spine -44.949449 -2.817791 -0.440814
RightShoulder -19.252816 15.171820 -42.734582
RightArm 3.433856 -20.477925 42.348327
RightForeArm 5.544429 -0.000000 -4.447756
RightHand 7.564091 -0.000000 3.440859
RightHandThumb1 -24.326973 -0.000000 -32.862282
LeftShoulder -12.117492 4.349621 37.333602
LeftArm 21.749997 -8.286398 -40.519536
LeftForeArm 20.961072 -0.000000 -1.182690
LeftHand -28.564226 -0.000000 5.577499
LeftHandThumb1 -26.253704 0.000000 33.147579
Head 11.540279 -2.057109 7.886048
3
root 1.159857 32.466392 -4.635805 38.392166 5.750096 1.390089
RightUpLeg -29.205556 -14.744758 6.639868
RightLeg -3.313397 -0.000000 0.000000
RightFoot -12.570904 4.091666 18.639610
RightToeBase 20.619341 -0.000000 -0.000000
LeftUpLeg -30.932125 5.766369 -2.471855
LeftLeg 0.504615 -0.000000 -0.000000
LeftFoot -11.187083 -11.778893 -1.390606
LeftToeBase 4.528402 -0.000000 -0.000000
Spine -44.973400 -2.825101 -0.462818
RightShoulder -19.118294 15.129483 -42.573316
RightArm 3.280125 -20.287430 42.782628
RightForeArm 5.541771 -0.000000 -4.742018
RightHand 7.628807 -0.000000 3.759340
RightHandThumb1 -24.326973 -0.000000 -32.862282
LeftShoulder -12.014109 4.427985 37.260578
LeftArm 21.886811 -8.197833 -40.960454
LeftForeArm 21.074035 -0.000000 -1.643055
LeftHand -28.443859 -0.000000 4.724701
LeftHandThumb1 -26.253704 0.000000 33.147579
Head 11.577425 -2.088358 7.967582
4
root 1.160726 32.466664 -4.635137 38.381622 5.756037 1.387697
RightUpLeg -29.187848 -14.716035 6.615753
RightLeg -3.310018 -0.000000 0.000000
RightFoot -12.568436 4.052874 18.655927
RightToeBase 20.577418 -0.000000 -0.000000
LeftUpLeg -30.915715 5.743196 -2.454691
LeftLeg 0.496376 -0.000000 -0.000000
LeftFoot -11.174520 -11.756109 -1.409065
LeftToeBase 4.517054 -0.000000 -0.000000
Spine -44.986278 -2.828299 -0.487332
RightShoulder -18.993675 15.112548 -42.405285
RightArm 3.107487 -20.181641 43.198704
RightForeArm 5.666673 0.000000 -5.015802
RightHand 7.623990 0.000000 4.245877
RightHandThumb1 -24.326973 -0.000000 -32.862282
LeftShoulder -11.893399 4.511676 37.206812
LeftArm 21.985468 -8.011660 -41.361342
LeftForeArm 20.928869 0.000000 -2.134525
LeftHand -28.064712 -0.000000 3.644683
LeftHandThumb1 -26.253704 0.000000 33.147579
Head 11.598591 -2.120651 8.051456
5
root 1.159320 32.466522 -4.631917 38.343242 5.778425 1.389524
RightUpLeg -29.125178 -14.687617 6.584065
RightLeg -3.331424 -0.000000 0.000000
RightFoot -12.524208 4.062820 18.831207
RightToeBase 20.454975 -0.000000 -0.000000
LeftUpLeg -30.866024 5.685444 -2.407765
LeftLeg 0.489005 -0.000000 -0.000000
LeftFoot -11.215211 -11.695672 -1.360903
LeftToeBase 4.632201 -0.000000 -0.000000
Spine -44.972222 -2.855137 -0.507655
RightShoulder -18.869189 15.072491 -42.206476
RightArm 2.930143 -19.904852 43.576770
RightForeArm 5.712127 -0.000000 -5.141358
RightHand 7.627046 -0.000000 4.506647
RightHandThumb1 -24.326973 -0.000000 -32.862282
LeftShoulder -11.764872 4.589763 37.167981
LeftArm 22.077523 -7.809955 -41.772547
LeftForeArm 20.625589 0.000000 -2.640872
LeftHand -27.889150 -0.000000 2.762805
LeftHandThumb1 -26.253704 0.000000 33.147579
Head 11.604613 -2.145060 8.143138
6
root 1.161419 32.467665 -4.630898 38.355721 5.759274 1.388410
RightUpLeg -29.144462 -14.635450 6.550896
RightLeg -3.301455 -0.000000 0.000000
RightFoot -12.590712 3.977048 18.672569
RightToeBase 20.616101 -0.000000 -0.000000
LeftUpLeg -30.872981 5.677387 -2.413006
LeftLeg 0.486580 -0.000000 -0.000000
LeftFoot -11.209746 -11.661392 -1.342660
LeftToeBase 4.610810 -0.000000 -0.000000
Spine -44.999152 -2.848433 -0.541537
RightShoulder -18.795840 15.053171 -42.040927
RightArm 2.838431 -19.563454 43.942075
RightForeArm 5.546335 -0.000000 -5.438987
RightHand 7.586724 -0.000000 5.144246
RightHandThumb1 -24.326973 -0.000000 -32.862282
LeftShoulder -11.659854 4.658676 37.155090
LeftArm 22.152170 -7.850189 -42.299939
LeftForeArm 20.631606 -0.000000 -3.141590
LeftHand -27.546063 0.000000 1.847217
LeftHandThumb1 -26.253704 0.000000 33.147579
Head 11.566598 -2.162241 8.240118
7
root 1.161837 32.468824 -4.630186 38.345510 5.754863 1.387574
RightUpLeg -29.149457 -14.622893 6.537551
RightLeg -3.267419 -0.000000 0.000000
RightFoot -12.552971 4.027650 18.854241
RightToeBase 20.516274 -0.000000 -0.000000
LeftUpLeg -30.869961 5.666927 -2.405723
LeftLeg 0.500942 -0.000000 -0.000000
LeftFoot -11.160482 -11.674763 -1.422562
LeftToeBase 4.494547 -0.000000 -0.000000
Spine -45.004481 -2.851287 -0.564297
RightShoulder -18.711326 15.095371 -41.849557
RightArm 2.696602 -19.298935 44.215614
RightForeArm 5.407439 -0.000000 -5.604404
RightHand 7.535726 -0.000000 5.893174
RightHandThumb1 -24.326973 -0.000000 -32.862282
LeftShoulder -11.533526 4.739320 37.106736
LeftArm 22.212103 -7.837368 -42.746534
LeftForeArm 20.521835 0.000000 -3.639428
LeftHand -27.262913 -0.000000 0.939133
LeftHandThumb1 -26.253704 0.000000 33.147579
Head 11.535260 -2.163092 8.318440
8
root 1.161244 32.469508 -4.628068 38.320463 5.749768 1.379475
RightUpLeg -29.117796 -14.583934 6.515107
RightLeg -3.266500 -0.000000 0.000000
RightFoot -12.544845 3.982815 18.826722
RightToeBase 20.469639 -0.000000 -0.000000
LeftUpLeg -30.841253 5.648630 -2.383445
LeftLeg 0.502254 -0.000000 -0.000000
LeftFoot -11.154097 -11.633165 -1.424670
LeftToeBase 4.491741 -0.000000 -0.000000
Spine -45.001147 -2.861150 -0.578514
RightShoulder -18.633417 15.124542 -41.687295
RightArm 2.610323 -19.067447 44.509140
RightForeArm 5.079838 -0.000000 -5.849283
RightHand 7.200930 -0.000000 6.500773
RightHandThumb1 -24.326973 -0.000000 -32.862282
LeftShoulder -11.414647 4.784399 37.098888
LeftArm 22.214632 -7.860429 -43.207423
LeftForeArm 20.378464 -0.000000 -4.065409
LeftHand -26.949069 0.000000 -0.239479
LeftHandThumb1 -26.253704 0.000000 33.147579
Head 11.512409 -2.145956 8.405934
9
root 1.161626 32.470691 -4.626430 38.309587 5.731073 1.374626
RightUpLeg -29.107653 -14.546084 6.491516
RightLeg -3.254412 -0.000000 0.000000
RightFoot -12.540893 3.965639 18.837201
RightToeBase 20.468486 -0.000000 -0.000000
LeftUpLeg -30.830010 5.647186 -2.381703
LeftLeg 0.511814 -0.000000 -0.000000
LeftFoot -11.157364 -11.599443 -1.420650
LeftToeBase 4.513595 -0.000000 -0.000000
Spine -45.003247 -2.863193 -0.594609
RightShoulder -18.556985 15.174550 -41.539102
RightArm 2.516316 -18.906066 44.765942
RightForeArm 4.934703 -0.000000 -6.065367
RightHand 6.998975 -0.000000 7.098323
RightHandThumb1 -24.326973 -0.000000 -32.862282
LeftShoulder -11.307512 4.821776 37.071302
LeftArm 22.207247 -8.097455 -43.695475
LeftForeArm 20.540237 0.000000 -4.494301
LeftHand -26.679115 -0.000000 -1.094038
LeftHandThumb1 -26.253704 0.000000 33.147579
Head 11.450914 -2.127205 8.470809
10
root 1.162175 32.472080 -4.625479 38.292602 5.730115 1.371246
RightUpLeg -29.098227 -14.538565 6.485153
RightLeg -3.229737 -0.000000 0.000000
RightFoot -12.609887 3.892202 18.672003
RightToeBase 20.647257 -0.000000 -0.000000
LeftUpLeg -30.811875 5.624833 -2.366406
LeftLeg 0.514088 -0.000000 -0.000000
LeftFoot -11.192223 -11.532800 -1.329063
LeftToeBase 4.597876 -0.000000 -0.000000
Spine -44.983110 -2.867415 -0.607824
RightShoulder -18.524661 15.209452 -41.419299
RightArm 2.460293 -18.855031 44.991812
RightForeArm 4.908065 0.000000 -6.292043
RightHand 6.759690 -0.000000 7.303163
RightHandThumb1 -24.326973 -0.000000 -32.862282
LeftShoulder -11.220162 4.804369 37.074306
LeftArm 22.174057 -8.196806 -44.131524
LeftForeArm 20.665382 -0.000000 -4.918852
LeftHand -26.370119 0.000000 -1.877928
LeftHandThumb1 -26.253704 0.000000 33.147579
Head 11.344041 -2.091328 8.541626
11
root 1.162297 32.472863 -4.624334 38.284977 5.720974 1.366759
RightUpLeg -29.100126 -14.541720 6.487600
RightLeg -3.214221 -0.000000 0.000000
RightFoot -12.547939 3.954460 18.803909
RightToeBase 20.511527 -0.000000 -0.000000
LeftUpLeg -30.802000 5.626596 -2.366233
LeftLeg 0.516810 -0.000000 -0.000000
LeftFoot -11.190643 -11.501012 -1.297337
LeftToeBase 4.536584 -0.000000 -0.000000
Spine -44.978512 -2.872177 -0.610104
RightShoulder -18.459443 15.275961 -41.339481
RightArm 2.357057 -18.626381 45.215041
RightForeArm 4.728377 -0.000000 -6.544157
RightHand 6.635884 -0.000000 7.863818
RightHandThumb1 -24.326973 -0.000000 -32.862282
LeftShoulder -11.148408 4.794242 37.040933
LeftArm 22.108424 -8.319089 -44.456959
LeftForeArm 20.808433 -0.000000 -5.202227
LeftHand -26.185911 -0.000000 -3.042853
LeftHandThumb1 -26.253704 0.000000 33.147579
Head 11.245116 -2.030217 8.594905
